<mxfile host="app.diagrams.net" agent="Mozilla/5.0 (Macintosh; Intel Mac OS X 10_15_7) AppleWebKit/605.1.15 (KHTML, like Gecko) Version/18.1 Safari/605.1.15" version="28.2.1">
  <diagram name="Page-1" id="Eynu4Fqwg2F7E1Na01TD">
    <mxGraphModel dx="1712" dy="543" grid="1" gridSize="10" guides="1" tooltips="1" connect="1" arrows="1" fold="1" page="1" pageScale="1" pageWidth="827" pageHeight="1169" math="0" shadow="0">
      <root>
        <mxCell id="0" />
        <mxCell id="1" parent="0" />
        <mxCell id="BX1c1g8Lsk9_kTT309qK-1" value="Reg" style="rounded=0;whiteSpace=wrap;html=1;" vertex="1" parent="1">
          <mxGeometry x="55" y="90" width="120" height="60" as="geometry" />
        </mxCell>
        <mxCell id="BX1c1g8Lsk9_kTT309qK-2" value="" style="endArrow=circle;html=1;rounded=0;endFill=0;exitX=0.5;exitY=0;exitDx=0;exitDy=0;entryX=0.525;entryY=0.967;entryDx=0;entryDy=0;entryPerimeter=0;" edge="1" parent="1" source="BX1c1g8Lsk9_kTT309qK-1" target="BX1c1g8Lsk9_kTT309qK-3">
          <mxGeometry width="50" height="50" relative="1" as="geometry">
            <mxPoint x="176" y="60" as="sourcePoint" />
            <mxPoint x="176" y="10" as="targetPoint" />
          </mxGeometry>
        </mxCell>
        <mxCell id="BX1c1g8Lsk9_kTT309qK-3" value="phone" style="text;html=1;align=center;verticalAlign=middle;resizable=0;points=[];autosize=1;strokeColor=none;fillColor=none;fontSize=12;" vertex="1" parent="1">
          <mxGeometry x="86" y="10" width="60" height="30" as="geometry" />
        </mxCell>
        <mxCell id="BX1c1g8Lsk9_kTT309qK-4" value="" style="endArrow=oval;html=1;rounded=0;endFill=1;exitX=0.992;exitY=0.342;exitDx=0;exitDy=0;exitPerimeter=0;" edge="1" parent="1" source="BX1c1g8Lsk9_kTT309qK-1">
          <mxGeometry width="50" height="50" relative="1" as="geometry">
            <mxPoint x="176" y="107" as="sourcePoint" />
            <mxPoint x="236" y="107" as="targetPoint" />
            <Array as="points">
              <mxPoint x="206" y="107" />
            </Array>
          </mxGeometry>
        </mxCell>
        <mxCell id="BX1c1g8Lsk9_kTT309qK-5" value="First Name" style="text;html=1;align=center;verticalAlign=middle;resizable=0;points=[];autosize=1;strokeColor=none;fillColor=none;fontSize=12;" vertex="1" parent="1">
          <mxGeometry x="237" y="91" width="80" height="30" as="geometry" />
        </mxCell>
        <mxCell id="BX1c1g8Lsk9_kTT309qK-10" value="" style="endArrow=oval;html=1;rounded=0;endFill=1;exitX=1;exitY=0.75;exitDx=0;exitDy=0;" edge="1" parent="1" source="BX1c1g8Lsk9_kTT309qK-1">
          <mxGeometry width="50" height="50" relative="1" as="geometry">
            <mxPoint x="176" y="136" as="sourcePoint" />
            <mxPoint x="236" y="136" as="targetPoint" />
            <Array as="points">
              <mxPoint x="206" y="136" />
            </Array>
          </mxGeometry>
        </mxCell>
        <mxCell id="BX1c1g8Lsk9_kTT309qK-11" value="Last Name" style="text;html=1;align=center;verticalAlign=middle;resizable=0;points=[];autosize=1;strokeColor=none;fillColor=none;fontSize=12;" vertex="1" parent="1">
          <mxGeometry x="237" y="120" width="80" height="30" as="geometry" />
        </mxCell>
        <mxCell id="BX1c1g8Lsk9_kTT309qK-12" value="" style="endArrow=none;html=1;rounded=0;endFill=0;startArrow=oval;startFill=1;entryX=0;entryY=0.75;entryDx=0;entryDy=0;" edge="1" parent="1" target="BX1c1g8Lsk9_kTT309qK-1">
          <mxGeometry width="50" height="50" relative="1" as="geometry">
            <mxPoint y="136" as="sourcePoint" />
            <mxPoint x="60" y="136" as="targetPoint" />
            <Array as="points">
              <mxPoint x="30" y="136" />
            </Array>
          </mxGeometry>
        </mxCell>
        <mxCell id="BX1c1g8Lsk9_kTT309qK-13" value="date" style="text;html=1;align=center;verticalAlign=middle;resizable=0;points=[];autosize=1;strokeColor=none;fillColor=none;fontSize=12;" vertex="1" parent="1">
          <mxGeometry x="-50" y="120" width="50" height="30" as="geometry" />
        </mxCell>
        <mxCell id="BX1c1g8Lsk9_kTT309qK-14" value="" style="endArrow=none;html=1;rounded=0;endFill=0;startArrow=oval;startFill=1;entryX=0;entryY=0.25;entryDx=0;entryDy=0;" edge="1" parent="1" target="BX1c1g8Lsk9_kTT309qK-1">
          <mxGeometry width="50" height="50" relative="1" as="geometry">
            <mxPoint y="106" as="sourcePoint" />
            <mxPoint x="56" y="105" as="targetPoint" />
            <Array as="points">
              <mxPoint x="30" y="106" />
            </Array>
          </mxGeometry>
        </mxCell>
        <mxCell id="BX1c1g8Lsk9_kTT309qK-15" value="time" style="text;html=1;align=center;verticalAlign=middle;resizable=0;points=[];autosize=1;strokeColor=none;fillColor=none;fontSize=12;" vertex="1" parent="1">
          <mxGeometry x="-50" y="90" width="50" height="30" as="geometry" />
        </mxCell>
        <mxCell id="BX1c1g8Lsk9_kTT309qK-16" value="cuisine" style="rounded=0;whiteSpace=wrap;html=1;fontSize=12;" vertex="1" parent="1">
          <mxGeometry x="47" y="760" width="80" height="40" as="geometry" />
        </mxCell>
        <mxCell id="BX1c1g8Lsk9_kTT309qK-19" value="" style="edgeStyle=orthogonalEdgeStyle;rounded=0;orthogonalLoop=1;jettySize=auto;html=1;startArrow=oval;startFill=0;endArrow=none;endFill=0;" edge="1" parent="1" source="BX1c1g8Lsk9_kTT309qK-18" target="BX1c1g8Lsk9_kTT309qK-16">
          <mxGeometry relative="1" as="geometry">
            <Array as="points">
              <mxPoint x="87" y="857" />
            </Array>
          </mxGeometry>
        </mxCell>
        <mxCell id="BX1c1g8Lsk9_kTT309qK-18" value="name" style="text;html=1;align=center;verticalAlign=middle;resizable=0;points=[];autosize=1;strokeColor=none;fillColor=none;fontSize=12;" vertex="1" parent="1">
          <mxGeometry x="66" y="850" width="50" height="30" as="geometry" />
        </mxCell>
        <mxCell id="BX1c1g8Lsk9_kTT309qK-20" value="Has" style="rhombus;whiteSpace=wrap;html=1;" vertex="1" parent="1">
          <mxGeometry x="47.5" y="580" width="79" height="70" as="geometry" />
        </mxCell>
        <mxCell id="BX1c1g8Lsk9_kTT309qK-23" value="Menu" style="rounded=0;whiteSpace=wrap;html=1;fontSize=12;" vertex="1" parent="1">
          <mxGeometry x="51" y="438" width="80" height="40" as="geometry" />
        </mxCell>
        <mxCell id="BX1c1g8Lsk9_kTT309qK-25" value="" style="edgeStyle=orthogonalEdgeStyle;rounded=0;orthogonalLoop=1;jettySize=auto;html=1;startArrow=oval;startFill=0;endArrow=none;endFill=0;entryX=0.25;entryY=0;entryDx=0;entryDy=0;" edge="1" parent="1" source="BX1c1g8Lsk9_kTT309qK-26" target="BX1c1g8Lsk9_kTT309qK-23">
          <mxGeometry relative="1" as="geometry">
            <mxPoint x="174" y="458" as="targetPoint" />
            <Array as="points">
              <mxPoint x="71" y="410" />
              <mxPoint x="71" y="410" />
            </Array>
          </mxGeometry>
        </mxCell>
        <mxCell id="BX1c1g8Lsk9_kTT309qK-26" value="item" style="text;html=1;align=center;verticalAlign=middle;resizable=0;points=[];autosize=1;strokeColor=none;fillColor=none;fontSize=12;" vertex="1" parent="1">
          <mxGeometry x="50" y="360" width="50" height="30" as="geometry" />
        </mxCell>
        <mxCell id="BX1c1g8Lsk9_kTT309qK-27" value="" style="edgeStyle=orthogonalEdgeStyle;rounded=0;orthogonalLoop=1;jettySize=auto;html=1;startArrow=oval;startFill=1;endArrow=none;endFill=0;entryX=0.25;entryY=0;entryDx=0;entryDy=0;" edge="1" parent="1">
          <mxGeometry relative="1" as="geometry">
            <mxPoint x="110" y="438" as="targetPoint" />
            <Array as="points">
              <mxPoint x="110" y="410" />
              <mxPoint x="110" y="410" />
            </Array>
            <mxPoint x="110" y="390" as="sourcePoint" />
          </mxGeometry>
        </mxCell>
        <mxCell id="BX1c1g8Lsk9_kTT309qK-28" value="price" style="text;html=1;align=center;verticalAlign=middle;resizable=0;points=[];autosize=1;strokeColor=none;fillColor=none;fontSize=12;" vertex="1" parent="1">
          <mxGeometry x="90" y="360" width="50" height="30" as="geometry" />
        </mxCell>
        <mxCell id="BX1c1g8Lsk9_kTT309qK-29" value="Assign to" style="rhombus;whiteSpace=wrap;html=1;" vertex="1" parent="1">
          <mxGeometry x="227" y="745" width="79" height="70" as="geometry" />
        </mxCell>
        <mxCell id="BX1c1g8Lsk9_kTT309qK-32" value="staff" style="rounded=0;whiteSpace=wrap;html=1;fontSize=12;" vertex="1" parent="1">
          <mxGeometry x="417" y="760" width="80" height="40" as="geometry" />
        </mxCell>
        <mxCell id="BX1c1g8Lsk9_kTT309qK-33" value="" style="edgeStyle=orthogonalEdgeStyle;rounded=0;orthogonalLoop=1;jettySize=auto;html=1;startArrow=oval;startFill=0;endArrow=none;endFill=0;exitX=0.485;exitY=0.095;exitDx=0;exitDy=0;exitPerimeter=0;" edge="1" parent="1" source="BX1c1g8Lsk9_kTT309qK-34">
          <mxGeometry relative="1" as="geometry">
            <mxPoint x="476" y="800" as="targetPoint" />
            <Array as="points">
              <mxPoint x="476" y="843" />
              <mxPoint x="477" y="843" />
              <mxPoint x="477" y="820" />
              <mxPoint x="476" y="820" />
              <mxPoint x="476" y="800" />
            </Array>
          </mxGeometry>
        </mxCell>
        <mxCell id="BX1c1g8Lsk9_kTT309qK-34" value="staff id" style="text;html=1;align=center;verticalAlign=middle;resizable=0;points=[];autosize=1;strokeColor=none;fillColor=none;fontSize=12;" vertex="1" parent="1">
          <mxGeometry x="447" y="842" width="60" height="30" as="geometry" />
        </mxCell>
        <mxCell id="BX1c1g8Lsk9_kTT309qK-36" value="" style="edgeStyle=orthogonalEdgeStyle;rounded=0;orthogonalLoop=1;jettySize=auto;html=1;startArrow=none;startFill=0;endArrow=oval;endFill=1;entryX=0.25;entryY=0;entryDx=0;entryDy=0;" edge="1" parent="1">
          <mxGeometry relative="1" as="geometry">
            <mxPoint x="427" y="848" as="targetPoint" />
            <Array as="points">
              <mxPoint x="427" y="820" />
              <mxPoint x="427" y="820" />
            </Array>
            <mxPoint x="427" y="800" as="sourcePoint" />
          </mxGeometry>
        </mxCell>
        <mxCell id="BX1c1g8Lsk9_kTT309qK-37" value="name" style="text;html=1;align=center;verticalAlign=middle;resizable=0;points=[];autosize=1;strokeColor=none;fillColor=none;fontSize=12;" vertex="1" parent="1">
          <mxGeometry x="407" y="850" width="50" height="30" as="geometry" />
        </mxCell>
        <mxCell id="BX1c1g8Lsk9_kTT309qK-38" value="is of" style="rhombus;whiteSpace=wrap;html=1;" vertex="1" parent="1">
          <mxGeometry x="231" y="423" width="79" height="70" as="geometry" />
        </mxCell>
        <mxCell id="BX1c1g8Lsk9_kTT309qK-43" value="prepares" style="rhombus;whiteSpace=wrap;html=1;" vertex="1" parent="1">
          <mxGeometry x="418" y="584.5" width="79" height="70" as="geometry" />
        </mxCell>
        <mxCell id="BX1c1g8Lsk9_kTT309qK-49" value="orders" style="rounded=0;whiteSpace=wrap;html=1;fontSize=12;" vertex="1" parent="1">
          <mxGeometry x="420.5" y="190" width="80" height="40" as="geometry" />
        </mxCell>
        <mxCell id="BX1c1g8Lsk9_kTT309qK-52" value="" style="edgeStyle=orthogonalEdgeStyle;rounded=0;orthogonalLoop=1;jettySize=auto;html=1;startArrow=oval;startFill=1;endArrow=none;endFill=0;entryX=1;entryY=0.75;entryDx=0;entryDy=0;" edge="1" parent="1" source="BX1c1g8Lsk9_kTT309qK-53" target="BX1c1g8Lsk9_kTT309qK-41">
          <mxGeometry relative="1" as="geometry">
            <mxPoint x="570" y="470" as="targetPoint" />
            <Array as="points">
              <mxPoint x="570" y="461" />
              <mxPoint x="570" y="461" />
            </Array>
          </mxGeometry>
        </mxCell>
        <mxCell id="BX1c1g8Lsk9_kTT309qK-53" value="quantity" style="text;html=1;align=center;verticalAlign=middle;resizable=0;points=[];autosize=1;strokeColor=none;fillColor=none;fontSize=12;" vertex="1" parent="1">
          <mxGeometry x="610" y="443" width="70" height="30" as="geometry" />
        </mxCell>
        <mxCell id="BX1c1g8Lsk9_kTT309qK-54" value="placed by" style="rhombus;whiteSpace=wrap;html=1;" vertex="1" parent="1">
          <mxGeometry x="200" y="190" width="79" height="70" as="geometry" />
        </mxCell>
        <mxCell id="BX1c1g8Lsk9_kTT309qK-57" value="" style="edgeStyle=orthogonalEdgeStyle;rounded=0;orthogonalLoop=1;jettySize=auto;html=1;startArrow=oval;startFill=0;endArrow=none;endFill=0;entryX=0.75;entryY=1;entryDx=0;entryDy=0;" edge="1" parent="1" source="BX1c1g8Lsk9_kTT309qK-58" target="BX1c1g8Lsk9_kTT309qK-49">
          <mxGeometry relative="1" as="geometry">
            <mxPoint x="553" y="370" as="targetPoint" />
            <Array as="points">
              <mxPoint x="480" y="300" />
            </Array>
          </mxGeometry>
        </mxCell>
        <mxCell id="BX1c1g8Lsk9_kTT309qK-58" value="order id" style="text;html=1;align=center;verticalAlign=middle;resizable=0;points=[];autosize=1;strokeColor=none;fillColor=none;fontSize=12;" vertex="1" parent="1">
          <mxGeometry x="610" y="280" width="60" height="30" as="geometry" />
        </mxCell>
        <mxCell id="BX1c1g8Lsk9_kTT309qK-62" value="" style="edgeStyle=orthogonalEdgeStyle;rounded=0;orthogonalLoop=1;jettySize=auto;html=1;startArrow=oval;startFill=1;endArrow=none;endFill=0;entryX=0.25;entryY=0;entryDx=0;entryDy=0;" edge="1" parent="1">
          <mxGeometry relative="1" as="geometry">
            <mxPoint x="434" y="190" as="targetPoint" />
            <Array as="points">
              <mxPoint x="434" y="162" />
              <mxPoint x="434" y="162" />
            </Array>
            <mxPoint x="434" y="142" as="sourcePoint" />
          </mxGeometry>
        </mxCell>
        <mxCell id="BX1c1g8Lsk9_kTT309qK-63" value="date" style="text;html=1;align=center;verticalAlign=middle;resizable=0;points=[];autosize=1;strokeColor=none;fillColor=none;fontSize=12;" vertex="1" parent="1">
          <mxGeometry x="414" y="112" width="50" height="30" as="geometry" />
        </mxCell>
        <mxCell id="BX1c1g8Lsk9_kTT309qK-64" value="" style="edgeStyle=orthogonalEdgeStyle;rounded=0;orthogonalLoop=1;jettySize=auto;html=1;startArrow=oval;startFill=1;endArrow=none;endFill=0;entryX=0.25;entryY=0;entryDx=0;entryDy=0;" edge="1" parent="1">
          <mxGeometry relative="1" as="geometry">
            <mxPoint x="487" y="190" as="targetPoint" />
            <Array as="points">
              <mxPoint x="487" y="162" />
              <mxPoint x="487" y="162" />
            </Array>
            <mxPoint x="487" y="142" as="sourcePoint" />
          </mxGeometry>
        </mxCell>
        <mxCell id="BX1c1g8Lsk9_kTT309qK-65" value="time" style="text;html=1;align=center;verticalAlign=middle;resizable=0;points=[];autosize=1;strokeColor=none;fillColor=none;fontSize=12;" vertex="1" parent="1">
          <mxGeometry x="467" y="112" width="50" height="30" as="geometry" />
        </mxCell>
        <mxCell id="BX1c1g8Lsk9_kTT309qK-67" value="" style="edgeStyle=orthogonalEdgeStyle;rounded=0;orthogonalLoop=1;jettySize=auto;html=1;startArrow=oval;startFill=1;endArrow=none;endFill=0;entryX=1;entryY=0.25;entryDx=0;entryDy=0;" edge="1" parent="1" source="BX1c1g8Lsk9_kTT309qK-68">
          <mxGeometry relative="1" as="geometry">
            <mxPoint x="500" y="220" as="targetPoint" />
            <Array as="points">
              <mxPoint x="549" y="220" />
              <mxPoint x="549" y="220" />
            </Array>
          </mxGeometry>
        </mxCell>
        <mxCell id="BX1c1g8Lsk9_kTT309qK-68" value="payment" style="text;html=1;align=center;verticalAlign=middle;resizable=0;points=[];autosize=1;strokeColor=none;fillColor=none;fontSize=12;" vertex="1" parent="1">
          <mxGeometry x="562.5" y="210" width="70" height="30" as="geometry" />
        </mxCell>
        <mxCell id="BX1c1g8Lsk9_kTT309qK-69" value="" style="edgeStyle=orthogonalEdgeStyle;rounded=0;orthogonalLoop=1;jettySize=auto;html=1;startArrow=oval;startFill=1;endArrow=none;endFill=0;entryX=0.894;entryY=1.025;entryDx=0;entryDy=0;entryPerimeter=0;exitX=0.035;exitY=0.6;exitDx=0;exitDy=0;exitPerimeter=0;" edge="1" parent="1" source="BX1c1g8Lsk9_kTT309qK-70" target="BX1c1g8Lsk9_kTT309qK-49">
          <mxGeometry relative="1" as="geometry">
            <mxPoint x="490" y="230" as="targetPoint" />
            <Array as="points">
              <mxPoint x="595" y="250" />
              <mxPoint x="491" y="250" />
            </Array>
          </mxGeometry>
        </mxCell>
        <mxCell id="BX1c1g8Lsk9_kTT309qK-70" value="card" style="text;html=1;align=center;verticalAlign=middle;resizable=0;points=[];autosize=1;strokeColor=none;fillColor=none;fontSize=12;" vertex="1" parent="1">
          <mxGeometry x="605" y="230" width="50" height="30" as="geometry" />
        </mxCell>
        <mxCell id="BX1c1g8Lsk9_kTT309qK-72" value="" style="edgeStyle=orthogonalEdgeStyle;rounded=0;orthogonalLoop=1;jettySize=auto;html=1;startArrow=oval;startFill=1;endArrow=none;endFill=0;entryX=1;entryY=0;entryDx=0;entryDy=0;exitX=0.035;exitY=0.6;exitDx=0;exitDy=0;exitPerimeter=0;" edge="1" parent="1" source="BX1c1g8Lsk9_kTT309qK-73" target="BX1c1g8Lsk9_kTT309qK-49">
          <mxGeometry relative="1" as="geometry">
            <mxPoint x="480" y="261" as="targetPoint" />
            <Array as="points">
              <mxPoint x="550" y="178" />
              <mxPoint x="550" y="190" />
            </Array>
          </mxGeometry>
        </mxCell>
        <mxCell id="BX1c1g8Lsk9_kTT309qK-73" value="card type" style="text;html=1;align=center;verticalAlign=middle;resizable=0;points=[];autosize=1;strokeColor=none;fillColor=none;fontSize=12;" vertex="1" parent="1">
          <mxGeometry x="632.5" y="160" width="70" height="30" as="geometry" />
        </mxCell>
        <mxCell id="BX1c1g8Lsk9_kTT309qK-78" value="" style="group" vertex="1" connectable="0" parent="1">
          <mxGeometry x="395.5" y="423" width="130" height="80" as="geometry" />
        </mxCell>
        <mxCell id="BX1c1g8Lsk9_kTT309qK-41" value="" style="rounded=0;whiteSpace=wrap;html=1;fontSize=12;" vertex="1" parent="BX1c1g8Lsk9_kTT309qK-78">
          <mxGeometry y="-10" width="130" height="90" as="geometry" />
        </mxCell>
        <mxCell id="BX1c1g8Lsk9_kTT309qK-77" value="order details" style="rhombus;whiteSpace=wrap;html=1;" vertex="1" parent="BX1c1g8Lsk9_kTT309qK-78">
          <mxGeometry x="24" width="79" height="70" as="geometry" />
        </mxCell>
        <mxCell id="BX1c1g8Lsk9_kTT309qK-79" value="" style="endArrow=none;html=1;rounded=0;entryX=0.5;entryY=1;entryDx=0;entryDy=0;fontSize=12;" edge="1" parent="1" source="BX1c1g8Lsk9_kTT309qK-54">
          <mxGeometry width="50" height="50" relative="1" as="geometry">
            <mxPoint x="115.5" y="280" as="sourcePoint" />
            <mxPoint x="114.5" y="150" as="targetPoint" />
          </mxGeometry>
        </mxCell>
        <mxCell id="BX1c1g8Lsk9_kTT309qK-80" value="(0, n)" style="edgeLabel;html=1;align=center;verticalAlign=middle;resizable=0;points=[];fontSize=12;" vertex="1" connectable="0" parent="BX1c1g8Lsk9_kTT309qK-79">
          <mxGeometry x="0.8539" y="1" relative="1" as="geometry">
            <mxPoint y="6" as="offset" />
          </mxGeometry>
        </mxCell>
        <mxCell id="BX1c1g8Lsk9_kTT309qK-82" value="" style="endArrow=none;html=1;rounded=0;exitX=1;exitY=0.5;exitDx=0;exitDy=0;fontSize=12;" edge="1" parent="1" source="BX1c1g8Lsk9_kTT309qK-54">
          <mxGeometry width="50" height="50" relative="1" as="geometry">
            <mxPoint x="281" y="400" as="sourcePoint" />
            <mxPoint x="420" y="210" as="targetPoint" />
          </mxGeometry>
        </mxCell>
        <mxCell id="BX1c1g8Lsk9_kTT309qK-83" value="(0, 1)" style="edgeLabel;html=1;align=center;verticalAlign=middle;resizable=0;points=[];fontSize=12;" vertex="1" connectable="0" parent="BX1c1g8Lsk9_kTT309qK-82">
          <mxGeometry x="0.8539" y="1" relative="1" as="geometry">
            <mxPoint x="-19" y="10" as="offset" />
          </mxGeometry>
        </mxCell>
        <mxCell id="BX1c1g8Lsk9_kTT309qK-84" value="" style="edgeStyle=orthogonalEdgeStyle;rounded=0;orthogonalLoop=1;jettySize=auto;html=1;startArrow=oval;startFill=1;endArrow=none;endFill=0;entryX=0.181;entryY=1.045;entryDx=0;entryDy=0;entryPerimeter=0;" edge="1" parent="1" source="BX1c1g8Lsk9_kTT309qK-85" target="BX1c1g8Lsk9_kTT309qK-49">
          <mxGeometry relative="1" as="geometry">
            <mxPoint x="288" y="340" as="targetPoint" />
            <Array as="points">
              <mxPoint x="410" y="340" />
              <mxPoint x="410" y="260" />
              <mxPoint x="435" y="260" />
            </Array>
          </mxGeometry>
        </mxCell>
        <mxCell id="BX1c1g8Lsk9_kTT309qK-85" value="total price" style="text;html=1;align=center;verticalAlign=middle;resizable=0;points=[];autosize=1;strokeColor=none;fillColor=none;fontSize=12;" vertex="1" parent="1">
          <mxGeometry x="310" y="320" width="80" height="30" as="geometry" />
        </mxCell>
        <mxCell id="BX1c1g8Lsk9_kTT309qK-87" value="" style="endArrow=none;html=1;rounded=0;exitX=0.5;exitY=0;exitDx=0;exitDy=0;fontSize=12;entryX=0.5;entryY=1;entryDx=0;entryDy=0;" edge="1" parent="1">
          <mxGeometry width="50" height="50" relative="1" as="geometry">
            <mxPoint x="457.07" y="413" as="sourcePoint" />
            <mxPoint x="457.07" y="230" as="targetPoint" />
          </mxGeometry>
        </mxCell>
        <mxCell id="BX1c1g8Lsk9_kTT309qK-88" value="(1,n)" style="edgeLabel;html=1;align=center;verticalAlign=middle;resizable=0;points=[];fontSize=12;" vertex="1" connectable="0" parent="BX1c1g8Lsk9_kTT309qK-87">
          <mxGeometry x="0.8539" y="1" relative="1" as="geometry">
            <mxPoint x="1" y="10" as="offset" />
          </mxGeometry>
        </mxCell>
        <mxCell id="BX1c1g8Lsk9_kTT309qK-91" value="(1,1)" style="edgeLabel;html=1;align=center;verticalAlign=middle;resizable=0;points=[];fontSize=12;" vertex="1" connectable="0" parent="1">
          <mxGeometry x="464" y="400" as="geometry">
            <mxPoint x="-7" y="-7" as="offset" />
          </mxGeometry>
        </mxCell>
        <mxCell id="BX1c1g8Lsk9_kTT309qK-93" value="" style="endArrow=none;html=1;rounded=0;entryX=0.544;entryY=1.011;entryDx=0;entryDy=0;fontSize=12;exitX=0.5;exitY=0;exitDx=0;exitDy=0;entryPerimeter=0;" edge="1" parent="1" source="BX1c1g8Lsk9_kTT309qK-43" target="BX1c1g8Lsk9_kTT309qK-41">
          <mxGeometry width="50" height="50" relative="1" as="geometry">
            <mxPoint x="457" y="580" as="sourcePoint" />
            <mxPoint x="457" y="503" as="targetPoint" />
          </mxGeometry>
        </mxCell>
        <mxCell id="BX1c1g8Lsk9_kTT309qK-94" value="(1,1)" style="edgeLabel;html=1;align=center;verticalAlign=middle;resizable=0;points=[];fontSize=12;" vertex="1" connectable="0" parent="BX1c1g8Lsk9_kTT309qK-93">
          <mxGeometry x="0.8539" y="1" relative="1" as="geometry">
            <mxPoint x="3" y="18" as="offset" />
          </mxGeometry>
        </mxCell>
        <mxCell id="BX1c1g8Lsk9_kTT309qK-95" value="" style="endArrow=none;html=1;rounded=0;entryX=1;entryY=0.5;entryDx=0;entryDy=0;fontSize=12;exitX=0;exitY=0.5;exitDx=0;exitDy=0;" edge="1" parent="1" source="BX1c1g8Lsk9_kTT309qK-29" target="BX1c1g8Lsk9_kTT309qK-16">
          <mxGeometry width="50" height="50" relative="1" as="geometry">
            <mxPoint x="321.5" y="761" as="sourcePoint" />
            <mxPoint x="220" y="700" as="targetPoint" />
          </mxGeometry>
        </mxCell>
        <mxCell id="BX1c1g8Lsk9_kTT309qK-96" value="(0, n)" style="edgeLabel;html=1;align=center;verticalAlign=middle;resizable=0;points=[];fontSize=12;" vertex="1" connectable="0" parent="BX1c1g8Lsk9_kTT309qK-95">
          <mxGeometry x="0.8539" y="1" relative="1" as="geometry">
            <mxPoint x="16" y="6" as="offset" />
          </mxGeometry>
        </mxCell>
        <mxCell id="BX1c1g8Lsk9_kTT309qK-97" value="" style="endArrow=none;html=1;rounded=0;entryX=0;entryY=0.5;entryDx=0;entryDy=0;fontSize=12;exitX=0.937;exitY=0.594;exitDx=0;exitDy=0;exitPerimeter=0;" edge="1" parent="1" source="BX1c1g8Lsk9_kTT309qK-29" target="BX1c1g8Lsk9_kTT309qK-32">
          <mxGeometry width="50" height="50" relative="1" as="geometry">
            <mxPoint x="431.5" y="841" as="sourcePoint" />
            <mxPoint x="330" y="780" as="targetPoint" />
          </mxGeometry>
        </mxCell>
        <mxCell id="BX1c1g8Lsk9_kTT309qK-98" value="(1,n)" style="edgeLabel;html=1;align=center;verticalAlign=middle;resizable=0;points=[];fontSize=12;" vertex="1" connectable="0" parent="BX1c1g8Lsk9_kTT309qK-97">
          <mxGeometry x="0.8539" y="1" relative="1" as="geometry">
            <mxPoint x="-19" y="6" as="offset" />
          </mxGeometry>
        </mxCell>
        <mxCell id="BX1c1g8Lsk9_kTT309qK-99" value="" style="endArrow=none;html=1;rounded=0;entryX=0.5;entryY=0;entryDx=0;entryDy=0;fontSize=12;exitX=0.5;exitY=1;exitDx=0;exitDy=0;" edge="1" parent="1" source="BX1c1g8Lsk9_kTT309qK-43" target="BX1c1g8Lsk9_kTT309qK-32">
          <mxGeometry width="50" height="50" relative="1" as="geometry">
            <mxPoint x="561.5" y="751" as="sourcePoint" />
            <mxPoint x="460" y="690" as="targetPoint" />
          </mxGeometry>
        </mxCell>
        <mxCell id="BX1c1g8Lsk9_kTT309qK-100" value="(0, n)" style="edgeLabel;html=1;align=center;verticalAlign=middle;resizable=0;points=[];fontSize=12;" vertex="1" connectable="0" parent="BX1c1g8Lsk9_kTT309qK-99">
          <mxGeometry x="0.8539" y="1" relative="1" as="geometry">
            <mxPoint x="-1" y="-22" as="offset" />
          </mxGeometry>
        </mxCell>
        <mxCell id="BX1c1g8Lsk9_kTT309qK-101" value="" style="endArrow=none;html=1;rounded=0;fontSize=12;exitX=0.5;exitY=1;exitDx=0;exitDy=0;" edge="1" parent="1" source="BX1c1g8Lsk9_kTT309qK-20">
          <mxGeometry width="50" height="50" relative="1" as="geometry">
            <mxPoint x="87" y="643" as="sourcePoint" />
            <mxPoint x="87" y="760" as="targetPoint" />
          </mxGeometry>
        </mxCell>
        <mxCell id="BX1c1g8Lsk9_kTT309qK-102" value="(0, n)" style="edgeLabel;html=1;align=center;verticalAlign=middle;resizable=0;points=[];fontSize=12;" vertex="1" connectable="0" parent="BX1c1g8Lsk9_kTT309qK-101">
          <mxGeometry x="0.8539" y="1" relative="1" as="geometry">
            <mxPoint x="-1" y="-22" as="offset" />
          </mxGeometry>
        </mxCell>
        <mxCell id="BX1c1g8Lsk9_kTT309qK-103" value="" style="endArrow=none;html=1;rounded=0;entryX=0.5;entryY=1;entryDx=0;entryDy=0;fontSize=12;exitX=0.5;exitY=0;exitDx=0;exitDy=0;" edge="1" parent="1" source="BX1c1g8Lsk9_kTT309qK-20" target="BX1c1g8Lsk9_kTT309qK-23">
          <mxGeometry width="50" height="50" relative="1" as="geometry">
            <mxPoint x="181.5" y="581" as="sourcePoint" />
            <mxPoint x="80" y="520" as="targetPoint" />
          </mxGeometry>
        </mxCell>
        <mxCell id="BX1c1g8Lsk9_kTT309qK-104" value="(1,1)" style="edgeLabel;html=1;align=center;verticalAlign=middle;resizable=0;points=[];fontSize=12;" vertex="1" connectable="0" parent="BX1c1g8Lsk9_kTT309qK-103">
          <mxGeometry x="0.8539" y="1" relative="1" as="geometry">
            <mxPoint y="18" as="offset" />
          </mxGeometry>
        </mxCell>
        <mxCell id="BX1c1g8Lsk9_kTT309qK-105" value="" style="endArrow=none;html=1;rounded=0;entryX=1;entryY=0.5;entryDx=0;entryDy=0;fontSize=12;exitX=0;exitY=0.5;exitDx=0;exitDy=0;" edge="1" parent="1" source="BX1c1g8Lsk9_kTT309qK-38" target="BX1c1g8Lsk9_kTT309qK-23">
          <mxGeometry width="50" height="50" relative="1" as="geometry">
            <mxPoint x="261.5" y="511" as="sourcePoint" />
            <mxPoint x="160" y="450" as="targetPoint" />
          </mxGeometry>
        </mxCell>
        <mxCell id="BX1c1g8Lsk9_kTT309qK-106" value="(0, n)" style="edgeLabel;html=1;align=center;verticalAlign=middle;resizable=0;points=[];fontSize=12;" vertex="1" connectable="0" parent="BX1c1g8Lsk9_kTT309qK-105">
          <mxGeometry x="0.8539" y="1" relative="1" as="geometry">
            <mxPoint x="22" y="4" as="offset" />
          </mxGeometry>
        </mxCell>
        <mxCell id="BX1c1g8Lsk9_kTT309qK-107" value="" style="endArrow=none;html=1;rounded=0;entryX=0;entryY=0.5;entryDx=0;entryDy=0;fontSize=12;exitX=1;exitY=0.5;exitDx=0;exitDy=0;" edge="1" parent="1" source="BX1c1g8Lsk9_kTT309qK-38" target="BX1c1g8Lsk9_kTT309qK-41">
          <mxGeometry width="50" height="50" relative="1" as="geometry">
            <mxPoint x="391.5" y="511" as="sourcePoint" />
            <mxPoint x="290" y="450" as="targetPoint" />
          </mxGeometry>
        </mxCell>
        <mxCell id="BX1c1g8Lsk9_kTT309qK-108" value="(1,1)" style="edgeLabel;html=1;align=center;verticalAlign=middle;resizable=0;points=[];fontSize=12;" vertex="1" connectable="0" parent="BX1c1g8Lsk9_kTT309qK-107">
          <mxGeometry x="0.8539" y="1" relative="1" as="geometry">
            <mxPoint x="-19" y="6" as="offset" />
          </mxGeometry>
        </mxCell>
      </root>
    </mxGraphModel>
  </diagram>
</mxfile>
